<?xml version="1.0" encoding="UTF-8"?>
<!DOCTYPE svg PUBLIC "-//W3C//DTD SVG 1.1//EN" "http://www.w3.org/Graphics/SVG/1.1/DTD/svg11.dtd">
<!-- Creator: CorelDRAW -->
<svg xmlns="http://www.w3.org/2000/svg" xml:space="preserve" width="2048px" height="2048px" style="shape-rendering:geometricPrecision; text-rendering:geometricPrecision; image-rendering:optimizeQuality; fill-rule:evenodd; clip-rule:evenodd"
viewBox="0 0 2048 2048"
 xmlns:xlink="http://www.w3.org/1999/xlink">
 <defs>
  <style type="text/css">
   <![CDATA[
    .fil2 {fill:none}
    .fil0 {fill:#424242}
    .fil1 {fill:#424242;fill-rule:nonzero}
   ]]>
  </style>
 </defs>
 <g id="Layer_x0020_1">
  <metadata id="CorelCorpID_0Corel-Layer"/>
  <g id="_459340816">
   <path id="_459341680" class="fil0" d="M1346 885.555c161.796,206.046 162.008,609.474 388.63,899.098 -28.7717,0 -1368.44,2.02323 -1421.25,7.34764 11.1154,-54.0071 101.262,-70.1481 189.003,-72.789 236.49,-6.02008 199.054,-128.676 551.672,-167.302 83.0977,-9.09331 70.1705,48.15 150.245,74.0032 223.949,42.1134 134.679,-343.889 46.9288,-576.204l94.7753 -164.154z"/>
   <g>
    <path id="_459340528" class="fil1" d="M560.958 686.939c-2.25591,-17.8406 -18.5504,-30.4748 -36.391,-28.2189 -17.8394,2.25709 -30.4736,18.5516 -28.2177,36.3922 29.4567,232.324 104.19,349.68 182.039,395.809 30.8079,18.2551 62.3741,25.8106 92.4249,25.0937 30.3036,-0.722835 58.6441,-9.86576 82.865,-24.9532 50.8122,-31.65 84.1217,-89.8513 79.7989,-151.596 -1.19882,-17.9823 -16.748,-31.5874 -34.7315,-30.3898 -17.9823,1.19882 -31.5874,16.7492 -30.3898,34.7315 2.59606,37.0973 -17.9162,72.3804 -49.154,91.8379 -14.8181,9.23032 -31.911,14.8181 -49.9205,15.248 -18.2634,0.435827 -37.9122,-4.4315 -57.6957,-16.1539 -62.8961,-37.2674 -124.178,-139.194 -150.627,-347.801z"/>
    <path id="_459340936" class="fil1" d="M708.472 327.544c-16.6429,6.98032 -24.4736,26.1343 -17.4933,42.776 6.98032,16.6417 26.1331,24.4736 42.776,17.4933 193.945,-81.4253 312.858,-79.3359 376.556,-43.5142 20.0055,11.2488 34.0158,25.8 42.7477,41.7945 8.68347,15.9059 12.4158,33.5292 11.8323,50.9469 -1.22953,36.7134 -21.5114,72.0662 -54.9119,88.3524 -16.2189,7.89686 -22.9654,27.45 -15.0673,43.6689 7.89804,16.2177 27.45,22.9654 43.6689,15.0673 55.6595,-27.1406 89.4261,-85.1434 91.4316,-145.044 0.955513,-28.5473 -5.27481,-57.6343 -19.7492,-84.1477 -14.4248,-26.4225 -36.7784,-50.0138 -68.0304,-67.5875 -78.8965,-44.3681 -217.896,-50.4319 -433.76,40.1941z"/>
    <path id="_459340480" class="fil0" d="M1216.56 699.655l217.419 -30.4925 -279.141 483.482 -82.2993 -203.535c-16.5768,6.59764 -33.8729,11.9067 -50.2536,15.8587 -56.5311,13.6299 -115.12,14.1839 -172.015,2.20866 -213.001,-44.8347 -361.363,-251.244 -454.744,-432.65l-8.1626 -15.8587 113.835 -197.169 17.8146 -0.861024c203.793,-9.83268 456.728,15.4465 602.058,177.493 38.8252,43.2922 67.63,94.2922 84.0946,150.072 4.77048,16.1634 8.82048,33.7985 11.3941,51.4512z"/>
   </g>
  </g>
 </g>
 <rect class="fil2" width="2048" height="2048"/>
</svg>
