<?xml version="1.0" encoding="UTF-8"?>
<!DOCTYPE svg PUBLIC "-//W3C//DTD SVG 1.1//EN" "http://www.w3.org/Graphics/SVG/1.1/DTD/svg11.dtd">
<!-- Creator: CorelDRAW -->
<svg xmlns="http://www.w3.org/2000/svg" xml:space="preserve" width="2048px" height="2048px" style="shape-rendering:geometricPrecision; text-rendering:geometricPrecision; image-rendering:optimizeQuality; fill-rule:evenodd; clip-rule:evenodd"
viewBox="0 0 2048 2048"
 xmlns:xlink="http://www.w3.org/1999/xlink">
 <defs>
  <style type="text/css">
   <![CDATA[
    .fil1 {fill:none}
    .fil0 {fill:#424242}
   ]]>
  </style>
 </defs>
 <g id="Layer_x0020_1">
  <metadata id="CorelCorpID_0Corel-Layer"/>
  <g id="_276986416">
   <path id="_276986824" class="fil0" d="M1042.59 1613.87c166.963,-35.8878 188.286,-246.422 188.286,-246.422 0,-137.147 102.493,-274.294 102.493,-274.294 30.4807,-387.477 -307.475,-365.723 -307.475,-365.723 0,0 -337.957,-21.7547 -307.477,365.723 0,0 102.493,137.146 102.493,274.294 0,0 21.3225,210.535 188.289,246.422l0 -101.723c-46.9807,1.72795 -77.6174,-51.8682 -77.6174,-51.8682 -66.0083,-85.8119 72.6071,-79.2119 72.6071,-79.2119l21.7063 1.83425 21.704 -1.83425c0,0 138.618,-6.60001 72.6095,79.2119 0,0 -30.6378,53.5961 -77.6174,51.8682l0 101.723zm-170.42 -675.748c-25.0831,-14.4803 -54.4241,-10.6158 -65.5382,8.63386 -11.1142,19.2484 0.210236,46.591 25.2933,61.0737 25.0831,14.4815 54.4241,10.6146 65.5371,-8.63386 11.113,-19.2484 -0.211417,-46.591 -25.2921,-61.0737zm307.445 0c25.0831,-14.4803 54.4241,-10.6158 65.5371,8.63386 11.113,19.2484 -0.210236,46.591 -25.2921,61.0737 -25.0831,14.4815 -54.4241,10.6146 -65.5371,-8.63386 -11.1142,-19.2484 0.209055,-46.591 25.2921,-61.0737z"/>
   <g>
    <path id="_276985960" class="fil0" d="M1024.07 727.349c19.0335,-102.508 76.4694,-222.903 234,-275.212 271.279,-86.8087 509.56,156.227 531.812,385.864 13.0677,134.871 -35.7142,239.946 -107.149,278.229 -63.7607,34.1681 -222.669,-2.73307 -192.705,-156.951 48.2823,62.4071 101.365,66.1831 117.946,63.2752 94.63,-16.5921 48.8989,-437.683 -232.746,-385.444 -72.691,13.4835 -140.51,67.9949 -155.087,137.293l-11.8677 41.9315 -184.272 -58.0028 0.068504 -30.9827z"/>
    <path id="_276985864" class="fil0" d="M1315.65 926.592c82.4835,-32.9292 168.514,-90.7406 199.544,-192.252 -114.904,22.8614 -193.18,56.0622 -249.48,91.7729 -56.2985,35.7095 49.9359,100.479 49.9359,100.479z"/>
   </g>
   <g>
    <path id="_276986008" class="fil0" d="M1023.93 727.349c-19.0335,-102.508 -76.4694,-222.903 -234,-275.212 -271.279,-86.8087 -509.56,156.227 -531.812,385.864 -13.0677,134.871 35.7142,239.946 107.149,278.229 63.7607,34.1681 222.669,-2.73307 192.705,-156.951 -48.2823,62.4071 -101.365,66.1831 -117.946,63.2752 -94.63,-16.5921 -48.8989,-437.683 232.746,-385.444 72.691,13.4835 140.51,67.9949 155.087,137.293l11.8677 41.9315 184.272 -58.0028 -0.068504 -30.9827z"/>
    <path id="_276986296" class="fil0" d="M732.349 926.592c-82.4835,-32.9292 -168.514,-90.7406 -199.544,-192.252 114.904,22.8614 193.18,56.0622 249.48,91.7729 56.2985,35.7095 -49.9359,100.479 -49.9359,100.479z"/>
   </g>
  </g>
 </g>
 <rect class="fil1" width="2048" height="2048"/>
</svg>
