<?xml version="1.0" encoding="UTF-8"?>
<!DOCTYPE svg PUBLIC "-//W3C//DTD SVG 1.1//EN" "http://www.w3.org/Graphics/SVG/1.1/DTD/svg11.dtd">
<!-- Creator: CorelDRAW -->
<svg xmlns="http://www.w3.org/2000/svg" xml:space="preserve" width="2048px" height="2048px" style="shape-rendering:geometricPrecision; text-rendering:geometricPrecision; image-rendering:optimizeQuality; fill-rule:evenodd; clip-rule:evenodd"
viewBox="0 0 2048 2048"
 xmlns:xlink="http://www.w3.org/1999/xlink">
 <defs>
  <style type="text/css">
   <![CDATA[
    .fil2 {fill:none}
    .fil1 {fill:#424242}
    .fil0 {fill:#424242;fill-rule:nonzero}
   ]]>
  </style>
 </defs>
 <g id="Layer_x0020_1">
  <metadata id="CorelCorpID_0Corel-Layer"/>
  <g id="_466581288">
   <path id="_466582824" class="fil0" d="M745.095 1546.97c12.15,-12.7713 11.6469,-32.9752 -1.12441,-45.1252 -12.7713,-12.15 -32.9752,-11.6469 -45.1252,1.12441 -80.2347,84.2871 -142.918,209.783 -143.101,210.147 -7.9382,15.7394 -1.61457,34.937 14.1248,42.8752 15.7394,7.9382 34.937,1.61457 42.8752,-14.1248 0.170079,-0.338977 58.7245,-117.552 132.351,-194.896z"/>
   <path id="_466583112" class="fil0" d="M610.981 1418.5c16.9819,-4.6937 26.9433,-22.2685 22.2496,-39.2504 -4.6937,-16.9819 -22.2685,-26.9433 -39.2504,-22.2496 -34.6158,9.55867 -78.1583,25.0429 -126.573,50.0752 -48.2067,24.9236 -101.454,59.406 -155.855,107.089 -13.2543,11.5973 -14.5973,31.7457 -3,45 11.5973,13.2543 31.7457,14.5973 45,3 49.9713,-43.8024 98.8595,-75.4642 143.106,-98.3398 44.0363,-22.7681 83.2737,-36.7512 114.323,-45.3248z"/>
   <path id="_466582272" class="fil0" d="M521.501 1242.15c15.2563,8.76733 34.7327,3.5067 43.5,-11.7496 8.76733,-15.2563 3.5067,-34.7327 -11.7496,-43.5 -30.3792,-17.524 -90.9261,-54.3284 -143.77,-97.9229 -48.1961,-39.7607 -89.4816,-83.9788 -89.4816,-118.785 0,-17.6728 -14.328,-32.0008 -32.0008,-32.0008 -17.6728,0 -32.0008,14.328 -32.0008,32.0008 0,57.9213 52.1292,117.832 112.983,168.034 56.204,46.3666 120.352,85.3678 152.519,103.923z"/>
   <path id="_466582056" class="fil1" d="M506.904 701.658l8.00197 -28.5839 -155.64 -12.4913c-28.5744,218.514 124.939,342.963 201.999,390.886l80.2583 -61.6666c-54.313,-32.1733 -161.499,-118.466 -134.62,-288.144z"/>
   <path id="_466582344" class="fil1" d="M544.13 531.398l227.191 -124.732c55.1268,228.064 -209.879,371.444 -412.055,253.916 0,0 -109.149,-376.421 338.551,-371.965l-153.688 242.781z"/>
   <path id="_466581672" class="fil0" d="M1349.15 1502.97c-12.15,-12.7713 -32.354,-13.2744 -45.1252,-1.12441 -12.7713,12.15 -13.2744,32.354 -1.12441,45.1252 73.6264,77.3445 132.181,194.557 132.351,194.896 7.9382,15.7394 27.1358,22.063 42.8752,14.1248 15.7394,-7.9382 22.063,-27.1358 14.1248,-42.8752 -0.183071,-0.36378 -62.8666,-125.86 -143.101,-210.147z"/>
   <path id="_466581984" class="fil0" d="M1454.02 1357c-16.9819,-4.6937 -34.5567,5.26772 -39.2504,22.2496 -4.6937,16.9819 5.26772,34.5567 22.2496,39.2504 31.0488,8.57481 70.2863,22.5567 114.323,45.3248 44.2465,22.8756 93.1335,54.5363 143.105,98.3387 13.2543,11.5973 33.4028,10.2543 45,-3 11.5973,-13.2543 10.2543,-33.4028 -3,-45 -54.4004,-47.6835 -107.648,-82.1658 -155.854,-107.088 -48.4146,-25.0323 -91.9572,-40.5154 -126.573,-50.0752z"/>
   <path id="_466582320" class="fil0" d="M1494.75 1186.9c-15.2563,8.76733 -20.5169,28.2437 -11.7496,43.5 8.76733,15.2563 28.2437,20.5169 43.5,11.7496 39.9296,-23.0315 129.031,-77.5229 191.684,-138.908 42.6095,-41.7473 73.8178,-87.7796 73.8178,-133.049 0,-17.6728 -14.328,-32.0008 -32.0008,-32.0008 -17.6728,0 -32.0008,14.328 -32.0008,32.0008 0,25.4114 -23.0705,56.6894 -54.5658,87.5481 -57.678,56.5111 -141.194,107.535 -178.684,129.16z"/>
   <path id="_466581864" class="fil1" d="M1503.87 531.398l-227.191 -124.732c-55.1268,228.064 209.879,371.444 412.055,253.916 0,0 109.149,-376.421 -338.551,-371.965l153.688 242.781z"/>
   <path id="_466581456" class="fil1" d="M1024 1655.23c0,0 -492.871,-24.3024 -516.461,-568.106 0,0 155.375,-203.972 516.461,-231.102 361.086,27.1299 516.461,231.102 516.461,231.102 -23.5902,543.804 -516.461,568.106 -516.461,568.106z"/>
   <path id="_466580832" class="fil0" d="M911.989 617.721c-10.148,-14.4272 -30.0733,-17.8973 -44.5004,-7.74922 -14.4272,10.148 -17.8973,30.0733 -7.74922,44.5004 0.258662,0.369685 91.4387,127.701 29.6847,247.733 -8.07638,15.6709 -1.92166,34.924 13.7492,43.0004 15.6709,8.07638 34.924,1.92166 43.0004,-13.7492 79.6666,-154.851 -33.8622,-313.276 -34.1847,-313.735z"/>
   <path id="_466581000" class="fil0" d="M1183.74 654.472c10.148,-14.4272 6.67796,-34.3524 -7.74922,-44.5004 -14.4272,-10.148 -34.3524,-6.67796 -44.5004,7.74922 -0.322441,0.459449 -113.851,158.884 -34.1847,313.735 8.07638,15.6709 27.3295,21.8256 43.0004,13.7492 15.6709,-8.07638 21.8256,-27.3295 13.7492,-43.0004 -61.754,-120.032 29.426,-247.363 29.6847,-247.733z"/>
   <path id="_466581024" class="fil1" d="M1541.1 701.658l-8.00197 -28.5839 155.64 -12.4913c28.5744,218.514 -124.939,342.963 -201.999,390.886l-80.2583 -61.6666c54.313,-32.1733 161.499,-118.466 134.62,-288.144z"/>
  </g>
 </g>
 <rect class="fil2" width="2048" height="2048"/>
</svg>
