<?xml version="1.0" encoding="UTF-8"?>
<!DOCTYPE svg PUBLIC "-//W3C//DTD SVG 1.1//EN" "http://www.w3.org/Graphics/SVG/1.1/DTD/svg11.dtd">
<!-- Creator: CorelDRAW -->
<svg xmlns="http://www.w3.org/2000/svg" xml:space="preserve" width="2048px" height="2048px" style="shape-rendering:geometricPrecision; text-rendering:geometricPrecision; image-rendering:optimizeQuality; fill-rule:evenodd; clip-rule:evenodd"
viewBox="0 0 2048 2048"
 xmlns:xlink="http://www.w3.org/1999/xlink">
 <defs>
  <style type="text/css">
   <![CDATA[
    .fil1 {fill:none}
    .fil0 {fill:#424242}
   ]]>
  </style>
 </defs>
 <g id="Layer_x0020_1">
  <metadata id="CorelCorpID_0Corel-Layer"/>
  <g id="_459339472">
   <path id="_459339856" class="fil0" d="M1024 1790.16c-1.68307,0.707481 -3.35197,1.33347 -4.99607,1.8378 -42.254,-13.0016 -99.1312,-95.882 -99.1312,-95.882l0 -118.632 104.127 0 104.127 0 0 118.632c0,0 -56.8772,82.8804 -99.1312,95.882 -1.6441,-0.504331 -3.31299,-1.13032 -4.99607,-1.8378z"/>
   <path id="_459340000" class="fil0" d="M777.34 664.565c52.4611,-208.474 -323.627,-406.132 -323.627,-406.132 0,0 342.114,-53.889 443.693,345.519 0,0 -24.6437,140.021 -120.066,60.613z"/>
   <path id="_459339784" class="fil0" d="M1588.32 810.596c-81.5918,-32.0351 -301.745,-122.337 -402.93,-201.96 -26.0669,-5.70119 -84.2658,-8.72835 -144.454,-9.0815l0 750.356c0,0.349607 -0.0106299,0.694489 -0.0318898,1.03819 41.6469,5.55 73.2579,32.726 73.2579,65.4142 0,36.7004 -39.8492,66.4501 -89.0068,66.4501 -0.386221,0 -0.770079,-0.00708662 -1.15512,-0.0106299 -0.38504,0.00354331 -0.768898,0.0106299 -1.15512,0.0106299 -49.1575,0 -89.0068,-29.7496 -89.0068,-66.4501 0,-32.6882 31.611,-59.8642 73.2579,-65.4142 -0.0212599,-0.343701 -0.0318898,-0.688583 -0.0318898,-1.03819l0 -750.356c-60.1878,0.35315 -118.387,3.38032 -144.454,9.0815 -101.185,79.6229 -321.338,169.925 -402.93,201.96l254.869 42.4595 -2.77914 16.6772 2.84528 -16.7008c8.04804,1.37008 13.7953,8.20749 14.087,16.0547l10.2614 134.669 0.17126 -0.0153543 67.9099 321.023c-6.17481,312.79 211.958,302.499 211.958,302.499 0,0 1.78819,0.0814961 4.99607,0.00590552 3.20788,0.0755906 4.99607,-0.00590552 4.99607,-0.00590552 0,0 218.133,10.291 211.958,-302.499l67.9099 -321.023 0.17126 0.0153543 10.2614 -134.669c0.291733,-7.84725 6.03898,-14.6847 14.087,-16.0547l2.84528 16.7008 -2.77914 -16.6772 254.869 -42.4595zm-883.287 193.223c-60.9284,-3.45591 -189.328,-27.5256 -266.618,-162.493l257.56 42.867 9.05788 119.626zm85.9323 -115.52c0,0 125.283,-16.0559 124.3,71.765 0,0 -119.867,82.0264 -124.3,-71.765zm552.003 115.52c60.9284,-3.45591 189.328,-27.5256 266.618,-162.493l-257.56 42.867 -9.05788 119.626zm-85.9323 -115.52c0,0 -125.283,-16.0559 -124.3,71.765 0,0 119.867,82.0264 124.3,-71.765z"/>
   <path id="_459339640" class="fil0" d="M1270.66 664.565c-52.4611,-208.474 323.627,-406.132 323.627,-406.132 0,0 -342.114,-53.889 -443.693,345.519 0,0 24.6437,140.021 120.066,60.613z"/>
  </g>
 </g>
 <rect class="fil1" width="2048" height="2048"/>
</svg>
