<?xml version="1.0" encoding="UTF-8"?>
<!DOCTYPE svg PUBLIC "-//W3C//DTD SVG 1.1//EN" "http://www.w3.org/Graphics/SVG/1.1/DTD/svg11.dtd">
<!-- Creator: CorelDRAW -->
<svg xmlns="http://www.w3.org/2000/svg" xml:space="preserve" width="2048px" height="2048px" style="shape-rendering:geometricPrecision; text-rendering:geometricPrecision; image-rendering:optimizeQuality; fill-rule:evenodd; clip-rule:evenodd"
viewBox="0 0 2048 2048"
 xmlns:xlink="http://www.w3.org/1999/xlink">
 <defs>
  <style type="text/css">
   <![CDATA[
    .fil2 {fill:none}
    .fil0 {fill:#424242}
    .fil1 {fill:#424242;fill-rule:nonzero}
   ]]>
  </style>
 </defs>
 <g id="Layer_x0020_1">
  <metadata id="CorelCorpID_0Corel-Layer"/>
  <g id="_466582944">
   <path id="_466583976" class="fil0" d="M718.851 1563.72c-72.841,61.0311 -47.2489,159.463 -47.2489,159.463 -90.5611,-51.1867 -106.309,-299.243 -106.309,-299.243l-102.372 86.6233c-251.993,-366.177 40.3618,-788.958 40.3618,-788.958l-71.3469 5.90434c-37.4044,-188.995 194.901,-272.668 194.901,-272.668l-78.7465 -44.2949c116.153,-98.4331 292.353,-5.90552 292.353,-5.90552 1.9689,-57.091 -134.857,-148.637 -134.857,-148.637 219.512,0.982678 307.119,155.526 318.414,155.526 11.2949,0 98.902,-154.544 318.414,-155.526 0,0 -136.826,91.5461 -134.857,148.637 0,0 176.199,-92.5276 292.353,5.90552l-78.7465 44.2949c0,0 232.305,83.6729 194.901,272.668l-71.3469 -5.90434c0,0 292.355,422.781 40.3618,788.958l-102.372 -86.6233c0,0 -15.7476,248.056 -106.309,299.243 0,0 25.5921,-98.432 -47.2489,-159.463 -234.14,304.379 -376.158,304.379 -610.297,0zm305.149 -37.6902c209.091,18.2705 272.02,-357.28 272.02,-357.28 178.642,-330.892 -81.2008,-525.772 -81.2008,-525.772 -107.59,-64.9595 -160.369,73.0796 -190.819,73.0796 -30.45,0 -83.2288,-138.039 -190.82,-73.0796 0,0 -259.842,194.88 -81.2008,525.772 0,0 62.9292,375.551 272.021,357.28z"/>
   <ellipse id="_466584264" class="fil0" transform="matrix(-2.12361 0.569019 0.75544 2.81934 1201.62 872.363)" rx="31.2496" ry="17.4992"/>
   <g>
    <path id="_466583520" class="fil0" d="M1024 1272.16c-94.8355,4.86142 -132.523,-104.56 -132.523,-104.56 35.2595,-70.5178 126.443,10.9417 132.523,10.9417 6.07914,0 97.2639,-81.4595 132.522,-10.9417 0,0 -37.6866,109.421 -132.522,104.56z"/>
    <path id="_466583256" class="fil0" d="M991.305 1342.25l0 -73.8308c0,-14.8016 14.6445,-26.8099 32.6953,-26.8099 18.0508,0 32.6953,12.0083 32.6953,26.8099l0 73.8308c0,14.8016 -14.6445,26.8099 -32.6953,26.8099 -18.0508,0 -32.6953,-12.0083 -32.6953,-26.8099z"/>
    <g>
     <path id="_466583424" class="fil0" d="M1142.37 1438.68l-0.022441 0.616536 13.8354 0.62126c3.46772,0.155906 1.81536,0.0661418 4.24725,-0.188977 42.8882,-4.49882 82.4658,-23.5583 115.806,-55.0536 10.3536,-9.77954 20.0764,-20.7248 28.6996,-32.5618 3.38622,-4.64882 7.44922,-10.3772 10.2047,-15.6 8.07993,-15.3106 3.92599,-35.5394 -9.25158,-44.9457 -13.1835,-9.40985 -30.6236,-4.57678 -38.726,10.7327 -7.10197,13.4197 -16.9866,26.0681 -27.2516,36.2457 -23.5311,23.3303 -51.5469,36.0425 -82.6406,36.0425 -31.0925,0 -59.1095,-12.7122 -82.6394,-36.0425 -10.265,-10.1776 -20.1508,-22.826 -27.2528,-36.2457 -8.10119,-15.3095 -25.5425,-20.1425 -38.726,-10.7327 -13.1799,9.40749 -17.3362,29.6457 -9.24686,44.9552 9.37796,17.9079 25.4528,37.1729 39.1843,50.4307 30.0473,29.0103 65.3339,46.8532 103.78,51.7264z"/>
     <path id="_466583832" class="fil0" d="M875.827 1438.68l-0.022441 0.616536 13.8343 0.62126c3.46772,0.155906 1.81654,0.0661418 4.24843,-0.188977 42.8882,-4.49882 82.4658,-23.5583 115.806,-55.0536 10.3524,-9.77954 20.0764,-20.7248 28.6984,-32.5618 3.3874,-4.64882 7.4504,-10.3772 10.2059,-15.6 8.07875,-15.3106 3.92599,-35.5394 -9.25158,-44.9457 -13.1835,-9.40985 -30.6248,-4.57678 -38.726,10.7327 -7.10197,13.4197 -16.9866,26.0681 -27.2528,36.2457 -23.5299,23.3303 -51.5469,36.0425 -82.6394,36.0425 -31.0937,0 -59.1095,-12.7122 -82.6406,-36.0425 -10.265,-10.1776 -20.1496,-22.826 -27.2516,-36.2457 -8.10237,-15.3095 -25.5425,-20.1425 -38.726,-10.7327 -13.1811,9.40749 -17.3374,29.6457 -9.24804,44.9552 9.37914,17.9079 25.454,37.1729 39.1843,50.4307 30.0473,29.0103 65.3351,46.8532 103.781,51.7264z"/>
    </g>
   </g>
   <path id="_466583856" class="fil1" d="M899.844 884.108c-7.52599,-5.25827 -17.8937,-3.41929 -23.152,4.10788 -5.25709,7.52599 -3.41811,17.8937 4.10788,23.152 0.0968505,0.0673229 34.076,23.55 29.5878,44.6374 -1.90866,9.00473 3.84331,17.8524 12.8469,19.761 9.00473,1.90984 17.8524,-3.84213 19.761,-12.8469 9.12048,-42.8386 -43.004,-78.7075 -43.1516,-78.8115z"/>
   <path id="_466583688" class="fil1" d="M1165.84 911.368c7.52599,-5.25827 9.36497,-15.626 4.10788,-23.152 -5.25827,-7.52717 -15.626,-9.36615 -23.152,-4.10788 -0.147638,0.103937 -52.2721,35.9729 -43.1504,78.8115 1.90866,9.00473 10.7563,14.7567 19.761,12.8469 9.00355,-1.90866 14.7555,-10.7563 12.8469,-19.761 -4.48937,-21.0886 29.4898,-44.5701 29.5866,-44.6374z"/>
   <ellipse id="_466583808" class="fil0" transform="matrix(2.12361 0.569019 -0.75544 2.81934 846.374 872.363)" rx="31.2496" ry="17.4992"/>
  </g>
 </g>
 <rect class="fil2" width="2048" height="2048"/>
</svg>
