<?xml version="1.0" encoding="UTF-8"?>
<!DOCTYPE svg PUBLIC "-//W3C//DTD SVG 1.1//EN" "http://www.w3.org/Graphics/SVG/1.1/DTD/svg11.dtd">
<!-- Creator: CorelDRAW -->
<svg xmlns="http://www.w3.org/2000/svg" xml:space="preserve" width="2048px" height="2048px" style="shape-rendering:geometricPrecision; text-rendering:geometricPrecision; image-rendering:optimizeQuality; fill-rule:evenodd; clip-rule:evenodd"
viewBox="0 0 2048 2048"
 xmlns:xlink="http://www.w3.org/1999/xlink">
 <defs>
  <style type="text/css">
   <![CDATA[
    .fil1 {fill:none}
    .fil0 {fill:#424242}
   ]]>
  </style>
 </defs>
 <g id="Layer_x0020_1">
  <metadata id="CorelCorpID_0Corel-Layer"/>
  <g id="_459341176">
   <g>
    <path id="_276985504" class="fil0" d="M974.131 1456.49c-69.8315,1.50354 -129.806,-8.60552 -181.128,-26.374 -20.5252,-67.5827 -52.917,-182.759 -22.9288,-223.063 12.6473,-16.9973 52.2863,-25.7079 95.4745,-35.1957 40.3666,-8.8689 83.4957,-18.3449 116.81,-37.526 15.0756,17.537 30.4051,35.941 45.7784,55.6311 66.3142,84.9284 111.188,161.908 90.4194,211.084 -8.34213,-5.75197 -21.4866,-13.4221 -35.2288,-21.4417 -20.7721,-12.1217 -42.991,-25.0902 -48.7347,-30.8339 -3.25866,-3.25866 -8.54646,-3.25866 -11.8051,0 -3.25866,3.25866 -3.25866,8.54528 0,11.8039 7.25434,7.25434 30.4441,20.7886 52.1268,33.4429 14.6917,8.57245 28.6512,16.7197 35.1839,21.2043 -19.7516,24.6945 -62.3292,39.6839 -135.967,41.2677zm-220.555 -42.2114c-162.354,-75.0154 -223.748,-230.098 -231.975,-302.121 -41.5937,-364.112 286.414,-631.673 286.414,-631.673 -91.3973,373.682 14.8559,472.458 151.924,628.115 -28.3264,14.5866 -66.0449,22.8744 -101.433,30.6496 -49.5367,10.8815 -95.0044,20.8736 -115.173,47.9788 -35.2299,47.3504 -11.1213,152.914 10.2425,227.051zm114.011 -87.1135c-10.2732,9.15001 -11.1839,24.8965 -2.03386,35.1697 9.15119,10.2744 24.8953,11.185 35.1697,2.03386 10.2732,-9.15001 11.185,-24.8953 2.03386,-35.1697 -9.15001,-10.2732 -24.8965,-11.1839 -35.1697,-2.03386z"/>
    <path id="_276985384" class="fil0" d="M805.165 487.585c50.4508,-176.958 260.019,-111.182 260.019,-111.182 0,0 -41.9953,173.342 -260.019,111.182z"/>
    <path id="_459338176" class="fil0" d="M805.164 487.585c50.452,-176.958 -162.293,-231.586 -162.293,-231.586 0,0 -55.7304,169.426 162.293,231.586z"/>
    <polygon id="_459338632" class="fil0" points="680.702,1370.96 447.154,1278.87 551.615,1180.1 "/>
   </g>
   <g>
    <path id="_459338128" class="fil0" d="M1073.87 591.507c69.8315,-1.50354 129.806,8.60552 181.128,26.374 20.5252,67.5827 52.917,182.759 22.9288,223.063 -12.6473,16.9973 -52.2863,25.7079 -95.4745,35.1957 -40.3666,8.8689 -83.4957,18.3449 -116.81,37.526 -15.0756,-17.537 -30.4051,-35.941 -45.7784,-55.6311 -66.3142,-84.9284 -111.188,-161.908 -90.4194,-211.084 8.34213,5.75197 21.4866,13.4221 35.2288,21.4417 20.7721,12.1217 42.991,25.0902 48.7347,30.8339 3.25866,3.25866 8.54646,3.25866 11.8051,0 3.25866,-3.25866 3.25866,-8.54528 0,-11.8039 -7.25434,-7.25434 -30.4441,-20.7886 -52.1268,-33.4429 -14.6917,-8.57245 -28.6512,-16.7197 -35.1839,-21.2043 19.7516,-24.6945 62.3292,-39.6839 135.967,-41.2677zm220.555 42.2114c162.354,75.0154 223.748,230.098 231.975,302.121 41.5937,364.112 -286.414,631.673 -286.414,631.673 91.3973,-373.682 -14.8559,-472.458 -151.924,-628.115 28.3264,-14.5866 66.0449,-22.8744 101.433,-30.6496 49.5367,-10.8815 95.0044,-20.8736 115.173,-47.9788 35.2299,-47.3504 11.1213,-152.914 -10.2425,-227.051zm-114.011 87.1135c10.2732,-9.15001 11.1839,-24.8965 2.03386,-35.1697 -9.15119,-10.2744 -24.8953,-11.185 -35.1697,-2.03386 -10.2732,9.15001 -11.185,24.8953 -2.03386,35.1697 9.15001,10.2732 24.8965,11.1839 35.1697,2.03386z"/>
    <path id="_459338104" class="fil0" d="M1242.83 1560.41c-50.4508,176.958 -260.019,111.182 -260.019,111.182 0,0 41.9953,-173.342 260.019,-111.182z"/>
    <path id="_459341896" class="fil0" d="M1242.84 1560.41c-50.452,176.958 162.293,231.586 162.293,231.586 0,0 55.7304,-169.426 -162.293,-231.586z"/>
    <polygon id="_459341824" class="fil0" points="1367.3,677.041 1600.85,769.131 1496.38,867.901 "/>
   </g>
  </g>
 </g>
 <rect class="fil1" width="2048" height="2048"/>
</svg>
