<?xml version="1.0" encoding="UTF-8"?>
<!DOCTYPE svg PUBLIC "-//W3C//DTD SVG 1.1//EN" "http://www.w3.org/Graphics/SVG/1.1/DTD/svg11.dtd">
<!-- Creator: CorelDRAW -->
<svg xmlns="http://www.w3.org/2000/svg" xml:space="preserve" width="2048px" height="2048px" style="shape-rendering:geometricPrecision; text-rendering:geometricPrecision; image-rendering:optimizeQuality; fill-rule:evenodd; clip-rule:evenodd"
viewBox="0 0 2048 2048"
 xmlns:xlink="http://www.w3.org/1999/xlink">
 <defs>
  <style type="text/css">
   <![CDATA[
    .fil2 {fill:none}
    .fil1 {fill:#424242}
    .fil0 {fill:#424242;fill-rule:nonzero}
   ]]>
  </style>
 </defs>
 <g id="Layer_x0020_1">
  <metadata id="CorelCorpID_0Corel-Layer"/>
  <g id="_466266896">
   <path id="_466267736" class="fil0" d="M1731.51 1451.98c25.8992,6.65906 52.2945,-8.93741 58.9536,-34.8366 6.65906,-25.8992 -8.93741,-52.2945 -34.8366,-58.9536 -126.059,-32.0469 -176.993,-161.763 -228.353,-292.562 -50.2193,-127.897 -100.801,-256.679 -219.415,-325.484 -68.8052,-118.613 -197.587,-169.195 -325.484,-219.415 -130.799,-51.3603 -260.517,-102.295 -292.562,-228.353 -6.65906,-25.8992 -33.0544,-41.4957 -58.9536,-34.8366 -25.8992,6.65906 -41.4957,33.0544 -34.8366,58.9536 44.1839,173.809 196.945,233.792 350.979,294.275 114.784,45.0709 230.382,90.4772 281.184,185.364 4.34174,9.41339 11.7201,17.5146 21.626,22.6736l0.0377953 -0.0720473c96.2705,50.2323 141.993,166.668 187.384,282.267 60.4831,154.034 120.467,306.794 294.275,350.979z"/>
   <path id="_466267928" class="fil0" d="M1744.08 1422.69c8.75434,-1.60276 14.5547,-10.0028 12.952,-18.7571 -1.60276,-8.75552 -10.0016,-14.5547 -18.7571,-12.952l-1075.52 195.125c-8.75434,1.60276 -14.5547,10.0028 -12.952,18.7571 1.60276,8.75434 10.0028,14.5547 18.7571,12.952l1075.52 -195.125zm-1313.9 -43.2579c-1.60276,8.75434 4.19764,17.1543 12.952,18.7571 8.75552,1.60276 17.1543,-4.19764 18.7571,-12.952l195.127 -1075.52c1.60276,-8.75552 -4.19646,-17.1543 -12.952,-18.7571 -8.75434,-1.60276 -17.1543,4.19764 -18.7571,12.952l-195.127 1075.52z"/>
   <polygon id="_466267808" class="fil1" points="1611.99,436.004 1611.99,764.836 1283.16,436.004 "/>
   <path id="_466267784" class="fil0" d="M1493.12 600.43c12.5799,-12.5799 12.5799,-32.9764 0,-45.5563 -12.5799,-12.5799 -32.9752,-12.5799 -45.5552,0l-827.453 827.454c-12.5799,12.5799 -12.5799,32.9764 0,45.5563 12.5799,12.5799 32.9764,12.5799 45.5563,0l827.451 -827.454z"/>
   <polygon id="_466267376" class="fil1" points="665.662,1382.34 665.662,1601.97 475.628,1792 475.628,1572.37 255.999,1572.37 446.034,1382.34 "/>
  </g>
 </g>
 <rect class="fil2" width="2048" height="2048"/>
</svg>
