<?xml version="1.0" encoding="UTF-8"?>
<!DOCTYPE svg PUBLIC "-//W3C//DTD SVG 1.1//EN" "http://www.w3.org/Graphics/SVG/1.1/DTD/svg11.dtd">
<!-- Creator: CorelDRAW -->
<svg xmlns="http://www.w3.org/2000/svg" xml:space="preserve" width="2048px" height="2048px" style="shape-rendering:geometricPrecision; text-rendering:geometricPrecision; image-rendering:optimizeQuality; fill-rule:evenodd; clip-rule:evenodd"
viewBox="0 0 2048 2048"
 xmlns:xlink="http://www.w3.org/1999/xlink">
 <defs>
  <style type="text/css">
   <![CDATA[
    .fil2 {fill:none}
    .fil0 {fill:#424242}
    .fil1 {fill:#424242;fill-rule:nonzero}
   ]]>
  </style>
 </defs>
 <g id="Layer_x0020_1">
  <metadata id="CorelCorpID_0Corel-Layer"/>
  <g id="_466579704">
   <path id="_466267280" class="fil0" d="M977.332 1008.69c-267.119,-345.411 155.992,-874.136 596.665,-609.733 0,0 -170.045,97.493 -360.496,92.9587l79.3548 124.7 -217.658 31.7433c0,0 -159.607,142.407 -11.6705,305.133 -26.5677,13.3441 -55.8756,32.0339 -86.1946,55.1977z"/>
   <ellipse id="_465081352" class="fil0" transform="matrix(1.0198 1.0198 -0.929443 0.929443 960.949 1153.07)" rx="76.2497" ry="233.751"/>
   <path id="_466583040" class="fil1" d="M645.895 869.35c-10.1882,-1.30866 -19.5083,5.89016 -20.8181,16.0772 -1.30866,10.1882 5.89016,19.5095 16.0784,20.8181 0.720473,0.0933072 251.646,31.167 253.617,157.044 0.142913,10.2721 8.5878,18.4878 18.8599,18.3449 10.2732,-0.144095 18.4878,-8.58898 18.3449,-18.861 -2.4815,-158.485 -285.27,-193.318 -286.082,-193.423z"/>
   <path id="_466577424" class="fil1" d="M563.497 960.109c-10.1882,-1.30984 -19.5095,5.88898 -20.8181,16.0772 -1.30866,10.187 5.88898,19.5083 16.0772,20.8169 0.720473,0.0944883 251.646,31.167 253.616,157.044 0.142913,10.2732 8.5878,18.4878 18.8599,18.3449 10.2732,-0.142913 18.4878,-8.5878 18.3449,-18.861 -2.47914,-158.485 -285.268,-193.317 -286.08,-193.422z"/>
   <path id="_466582296" class="fil1" d="M484.92 1080.06c-10.1882,-1.30866 -19.5095,5.88898 -20.8181,16.0772 -1.30866,10.1882 5.88898,19.5095 16.0772,20.8181 0.720473,0.0933072 251.648,31.1658 253.617,157.044 0.144095,10.2721 8.58898,18.4866 18.861,18.3437 10.2721,-0.142913 18.4878,-8.5878 18.3449,-18.8599 -2.48032,-158.485 -285.271,-193.318 -286.082,-193.423z"/>
   <path id="_466580376" class="fil1" d="M1207.56 1472.65c1.30866,10.1882 10.6299,17.387 20.8169,16.0784 10.1882,-1.30984 17.387,-10.6299 16.0784,-20.8181 -0.105118,-0.812599 -34.9394,-283.602 -193.425,-286.081 -10.2721,-0.142913 -18.7169,8.07166 -18.861,18.3437 -0.142913,10.2732 8.07284,18.7181 18.3449,18.861 125.877,1.97008 156.952,252.895 157.045,253.616z"/>
   <path id="_466580616" class="fil1" d="M1116.8 1555.05c1.30866,10.187 10.6299,17.3858 20.8181,16.0772 10.1882,-1.30866 17.3858,-10.6299 16.0772,-20.8181 -0.105118,-0.812599 -34.9394,-283.601 -193.425,-286.081 -10.2721,-0.142913 -18.7169,8.07166 -18.8599,18.3449 -0.142913,10.2721 8.07166,18.7169 18.3437,18.8599 125.878,1.97008 156.952,252.897 157.045,253.617z"/>
   <path id="_466580232" class="fil1" d="M996.849 1633.62c1.30866,10.1882 10.6299,17.3858 20.8181,16.0772 10.1882,-1.30866 17.3858,-10.6299 16.0772,-20.8181 -0.105118,-0.811418 -34.9382,-283.601 -193.423,-286.082 -10.2721,-0.142913 -18.7169,8.07166 -18.8599,18.3449 -0.144095,10.2721 8.07166,18.7169 18.3437,18.8599 125.878,1.97008 156.951,252.898 157.044,253.618z"/>
   <path id="_466580424" class="fil0" d="M1104.75 1137.45c345.242,276.737 881.67,-148.781 615.735,-592.009 0,0 -97.493,170.043 -92.9587,360.496l-124.701 -79.3548 -31.7422 217.658c0,0 -145.662,163.289 -310.693,6.53032 -13.4445,26.7166 -32.289,56.1957 -55.6406,86.6788z"/>
   <path id="_466580256" class="fil0" d="M736.772 1299.49c0,0 41.7319,47.6504 65.5347,51.9272l-2.96457 146.726c0,0 -55.7563,36.6638 -84.6792,-20.8961l22.1091 -177.757z"/>
   <path id="_466579632" class="fil0" d="M723.484 1521.21c0,0 44.315,28.689 68.4461,20.2819 0,0 -25.5449,117.641 -75.3154,130.35 0,0 -72.6709,-28.4126 -30.9921,-62.2312l37.8614 -88.4009z"/>
   <path id="_466579368" class="fil0" d="M639.544 1637.72c0,0 -74.4178,36.2256 -125.645,3.22087l-26.4898 56.8146c0,0 112.378,45.9922 186.97,7.33819l-34.8355 -67.3737z"/>
   <polygon id="_466579560" class="fil0" points="376.84,1520.8 479.607,1623.57 456.551,1674.71 330.16,1565.24 "/>
   <path id="_466579896" class="fil0" d="M337.661 1520.68c0,0 -22.102,29.9681 -42.5752,-11.335l-34.8744 -107.769c0,0 6.463,-18.2634 28.4221,-21.6898 0,0 24.4512,-4.51654 26.7969,20.9374 -1.47874,31.6996 49.7516,100.439 22.2307,119.856z"/>
   <path id="_466579848" class="fil0" d="M484.369 1192.65c0,0 -107.954,-11.5122 -134.062,41.2193l11.7721 67.2036 -57.906 -23.5595c0,0 -31.7953,48.4087 -1.16929,82.9241 0,0 -36.9142,21.0083 -46.4611,-0.555119 0,0 -22.852,-235.075 227.827,-167.232z"/>
  </g>
 </g>
 <rect class="fil2" width="2048" height="2048"/>
</svg>
