<?xml version="1.0" encoding="UTF-8"?>
<!DOCTYPE svg PUBLIC "-//W3C//DTD SVG 1.1//EN" "http://www.w3.org/Graphics/SVG/1.1/DTD/svg11.dtd">
<!-- Creator: CorelDRAW -->
<svg xmlns="http://www.w3.org/2000/svg" xml:space="preserve" width="2048px" height="2048px" style="shape-rendering:geometricPrecision; text-rendering:geometricPrecision; image-rendering:optimizeQuality; fill-rule:evenodd; clip-rule:evenodd"
viewBox="0 0 2048 2048"
 xmlns:xlink="http://www.w3.org/1999/xlink">
 <defs>
  <style type="text/css">
   <![CDATA[
    .fil1 {fill:none}
    .fil0 {fill:#424242}
   ]]>
  </style>
 </defs>
 <g id="Layer_x0020_1">
  <metadata id="CorelCorpID_0Corel-Layer"/>
  <g id="_276987448">
   <path id="_276984160" class="fil0" d="M803.996 690.445c-152.568,-45.9201 -275.423,-189.053 -325.92,-255.586 -11.165,198.619 128.597,334.478 174.736,373.698 38.0528,-63.3532 94.0465,-98.8335 151.184,-118.112z"/>
   <path id="_276984256" class="fil0" d="M1395.2 808.573c46.1197,-39.1996 185.921,-175.068 174.754,-373.714 -50.4981,66.5351 -173.356,209.673 -325.931,255.59 57.1359,19.2803 113.128,54.7666 151.178,118.125z"/>
   <path id="_276984040" class="fil0" d="M600.168 1067.25l0 0zm847.672 -0.011811l0 0zm60.9851 -63.8894l-97.8615 -69.9001c-3.74764,-2.27953 -6.55512,-6.07441 -7.44568,-10.7209l0.0259843 -0.0129921c-30.2953,-157.97 -147.004,-206.032 -242.566,-218.003 -1.66417,0.0661418 -3.33071,0.116929 -4.99843,0.154725 -2.53229,0.0496063 -4.93819,-0.490158 -7.08662,-1.49291 -61.6264,-5.94804 -112.093,2.39528 -120.673,3.94016 -2.26772,0.617717 -4.7067,0.746457 -7.17284,0.287008l0.00944883 -0.0519685c-1.12559,-0.216142 -54.9331,-10.6394 -121.929,-4.17166 -2.14843,1.00039 -4.55197,1.53898 -7.08071,1.48937 -1.66299,-0.0377953 -3.32362,-0.0885827 -4.98189,-0.154725 -95.4355,11.9516 -211.971,59.8902 -242.47,217.345 -0.618898,4.17048 -2.86418,8.09292 -6.56457,10.7362l-0.0496063 -0.0188977 -97.8438 69.8871c-3.33662,2.77323 -7.7752,4.19764 -12.4134,3.58111l0.00708662 -0.0543308c-2.07047,-0.283465 -224.778,-31.0418 -271.732,120.992 66.3567,-1.66417 273.592,-10.761 344.161,-59.9422 7.29213,-5.08111 17.3256,-3.29173 22.4067,4.00158 2.52874,3.62835 3.35433,7.93347 2.6504,11.9717 -0.732284,8.48741 -4.32874,58.0536 8.91851,83.9138 0.303544,0.474804 0.588189,0.969686 0.846851,1.48465l-0.0354331 0.0177165c0.356693,0.708662 77.3717,154.622 161.523,203.995 11.6244,-27.665 26.7697,-52.0619 45.3898,-70.4646 23.8335,-23.5547 53.1071,-37.3146 87.7465,-35.9705 29.987,1.16457 63.4985,13.8532 100.261,41.7107 36.7642,-27.8575 70.2756,-40.5461 100.263,-41.7107 34.637,-1.3441 63.913,12.4169 87.7453,35.9717 17.2996,17.0977 31.6004,39.3709 42.8646,64.6323 76.6595,-52.0182 145.166,-184.123 151.789,-197.128 0.362599,-0.872835 0.809056,-1.72205 1.33465,-2.53701 13.2473,-25.8603 9.65079,-75.4276 8.91851,-83.915 -0.703938,-4.03819 0.121654,-8.34331 2.6504,-11.9717 5.08111,-7.29331 15.1146,-9.08268 22.3984,-3.98977 70.5768,49.1693 277.813,58.2662 344.169,59.9304 -45.1205,-146.102 -252.535,-123.399 -270.493,-121.152 -4.26496,0.905906 -8.8819,0.0897638 -12.7087,-2.64331l0.0259843 -0.0366142zm-203.554 -118.344c-22.2449,176.979 -196.322,88.9737 -196.322,88.9737 26.1095,-117.985 196.322,-88.9737 196.322,-88.9737zm-562.543 0c0,0 170.212,-29.0114 196.322,88.9737 0,0 -174.077,88.0052 -196.322,-88.9737z"/>
   <path id="_276983656" class="fil0" d="M1762.64 1158.25c-77.6422,-3.22087 -226.71,-14.0173 -306.906,-50.0882 -0.125197,18.6414 -1.88858,42.9201 -8.74489,62.6859 115.706,86.3268 250.162,26.8642 315.651,-12.5976z"/>
   <path id="_276984088" class="fil0" d="M601.007 1170.82c-6.8504,-19.7622 -8.61261,-44.0315 -8.7378,-62.667 -80.1934,36.0697 -229.257,46.8662 -306.901,50.0882 65.4898,39.4548 199.94,98.8997 315.639,12.5787z"/>
   <path id="_276984064" class="fil0" d="M1131.26 1298.25c-25.6819,0.996851 -55.7103,13.5508 -90.1855,41.6174 -5.79331,5.63622 -15.0248,6.13819 -21.4205,0.889371l0.0283465 -0.0543308c-34.9063,-28.6547 -65.2737,-41.4461 -91.2095,-42.4524 -24.9591,-0.968505 -46.3855,9.27639 -64.1079,26.791 -18.9319,18.711 -33.8563,45.6414 -44.6032,76.415 -21.1406,60.5315 -25.8083,134.622 -13.1563,191.072 29.4508,-25.4988 99.0107,-69.8634 223.79,-66.2174l0.238583 -0.00472441 0 -0.0188977 0.271654 0.0129921c123.222,-3.47362 192.483,39.8918 222.39,65.465 12.4394,-56.3552 7.72087,-130.048 -13.324,-190.308 -10.7469,-30.7736 -25.6713,-57.704 -44.6044,-76.415 -17.7213,-17.5146 -39.15,-27.7607 -64.1067,-26.7921zm-267.99 73.7233c0,0 70.5934,94.7965 127.069,94.7965 0,0 -173.459,82.6949 -127.069,-94.7965zm194.388 94.7965c56.4756,0 127.069,-94.7965 127.069,-94.7965 46.3914,177.491 -127.069,94.7965 -127.069,94.7965z"/>
   <path id="_276987472" class="fil0" d="M1240.3 1601.68c-28.7847,-23.8547 -93.6804,-62.6186 -209.036,-59.3504 -0.361418,0.0377953 -0.729922,0.0531496 -1.10197,0.0425197l0.0011811 -0.0283465c-115.937,-3.43347 -181.037,35.5595 -209.803,59.4485 61.3229,7.56497 135.347,11.348 209.511,11.348 74.5359,0 148.929,-3.82087 210.429,-11.4602z"/>
  </g>
 </g>
 <rect class="fil1" width="2048" height="2048"/>
</svg>
