<?xml version="1.0" encoding="UTF-8"?>
<!DOCTYPE svg PUBLIC "-//W3C//DTD SVG 1.1//EN" "http://www.w3.org/Graphics/SVG/1.1/DTD/svg11.dtd">
<!-- Creator: CorelDRAW -->
<svg xmlns="http://www.w3.org/2000/svg" xml:space="preserve" width="2048px" height="2048px" style="shape-rendering:geometricPrecision; text-rendering:geometricPrecision; image-rendering:optimizeQuality; fill-rule:evenodd; clip-rule:evenodd"
viewBox="0 0 2048 2048"
 xmlns:xlink="http://www.w3.org/1999/xlink">
 <defs>
  <style type="text/css">
   <![CDATA[
    .fil2 {fill:none}
    .fil0 {fill:#424242}
    .fil1 {fill:#424242;fill-rule:nonzero}
   ]]>
  </style>
 </defs>
 <g id="Layer_x0020_1">
  <metadata id="CorelCorpID_0Corel-Layer"/>
  <g id="_466576656">
   <ellipse id="_466577016" class="fil0" cx="641.12" cy="1058.27" rx="59.594" ry="42.0984"/>
   <path id="_466577592" class="fil1" d="M592.355 938.376c-8.24646,4.49055 -11.2902,14.8181 -6.79843,23.0646 4.49055,8.24646 14.8181,11.2902 23.0646,6.79961 14.5713,-7.95237 27.9248,-12.2693 40.1032,-13.5862 18.4441,-1.9937 34.5544,3.07914 48.3378,12.8126 14.7839,10.4386 27.2138,26.2169 37.2579,44.6209 16.3925,30.0366 26.2666,66.6308 29.778,99.0993 1.93937,17.9209 2.41063,36.163 2.85827,53.5075 0.811418,31.4504 1.55315,60.1973 10.2177,81.2446 2.02323,4.91457 4.88741,9.60355 8.39883,13.8449 7.40434,8.94213 18.1701,16.5791 30.3095,20.6528 12.6366,4.23898 26.8382,4.71378 40.5898,-0.947245 5.2689,-2.16851 10.3465,-5.16142 15.0921,-9.09095 3.60827,-2.98819 7.62638,-7.33347 11.9646,-12.0225 7.33111,-7.92757 16.2933,-17.615 17.948,-16.7681 8.35749,4.26851 18.5953,0.956694 22.865,-7.40079 4.26851,-8.35631 0.956694,-18.5953 -7.40079,-22.8638 -24.5504,-12.5669 -43.1339,7.52363 -58.3441,23.9693 -3.20788,3.4689 -6.18189,6.68386 -8.76379,8.82166 -2.14016,1.77284 -4.25079,3.04961 -6.2941,3.89055 -5.47559,2.25355 -11.4106,1.97244 -16.8579,0.146457 -5.94095,-1.9937 -11.2169,-5.7378 -14.8441,-10.1185 -1.45748,-1.76102 -2.55236,-3.47599 -3.19843,-5.04685 -6.29528,-15.2906 -6.95906,-40.9902 -7.68308,-69.1099 -0.473622,-18.3473 -0.973229,-37.6453 -2.99292,-56.3103 -3.92953,-36.3567 -15.1228,-77.5808 -33.7784,-111.764 -12.4299,-22.7752 -28.2295,-42.5965 -47.5217,-56.2193 -20.2902,-14.3256 -44.1142,-21.7784 -71.5394,-18.8126 -16.4504,1.77874 -34.0512,7.37245 -52.7682,17.5866z"/>
   <ellipse id="_466577568" class="fil0" cx="974.455" cy="1014.14" rx="59.594" ry="42.0984"/>
   <path id="_466576392" class="fil1" d="M891.2 1302.49c26.3079,-6.05788 54.6603,-3.51378 77.928,-1.42677 138.284,12.4039 -6.72166,78.1784 -51.8741,87.091 -68.5713,13.5402 -157.546,8.81694 -120.26,-25.1858 25.0961,-22.8839 74.4934,-55.9406 94.206,-60.4784z"/>
   <path id="_466576680" class="fil1" d="M1017.24 941.994c8.28308,4.41851 18.5799,1.28386 22.9984,-6.99922 4.41733,-8.28308 1.28386,-18.5811 -6.99922,-22.9984 -0.320079,-0.17126 -111.73,-60.978 -169.383,51.4453 -4.26969,8.35749 -0.957875,18.5953 7.39961,22.865 8.35749,4.26969 18.5953,0.957875 22.865,-7.39961 41.7107,-81.3367 122.884,-37.0382 123.119,-36.913z"/>
   <path id="_466576536" class="fil0" d="M1480.29 857.409l0 0zm0.00590552 -0.0791339c23.4756,-284.968 -53.0682,-439.486 -153.788,-507.733 -37.0677,-25.1162 -77.4922,-38.5382 -117.311,-42.4796 -39.7961,-3.93662 -79.0158,1.62402 -113.694,14.4638 -25.2839,9.36142 -48.0721,22.5898 -66.7501,38.7815 -0.876379,0.970867 -1.84016,1.81772 -2.86772,2.53937 -57.1099,51.6331 -31.1823,83.8501 -65.8701,118.539 -37.2544,-37.2544 0.274016,-99.1583 30.2386,-131.254 -52.6359,-37.3111 -149.208,-66.2752 -258.423,-59.3953 -90.5705,5.70473 -189.331,36.2918 -278.294,107.518 -66.1749,52.9831 -116.679,128.192 -150.064,217.793 -34.4327,92.4142 -50.602,200.029 -46.9701,314.397 2.32914,73.363 7.41969,157.677 29.1544,246.31 21.6083,88.115 59.7721,180.845 128.301,271.908 144.32,191.773 188.437,279.62 201.003,309.507 198.755,-0.747638 460.275,-0.437008 535.588,-0.325985 -13.2473,-54.9319 -58.7989,-207.386 -167.094,-266.24 -60.7997,17.1331 -140.622,12.1937 -245.529,-30.6709l-0.0555119 0.0661418c-0.721654,-0.295276 -1.41142,-0.635434 -2.07047,-1.01339 -24.6921,-11.3917 -324.721,-161.693 -264.821,-724.773l-0.0366142 -0.00472441c0.996851,-9.37087 9.40276,-16.1599 18.7748,-15.1642 5.99056,0.637796 10.924,4.30276 13.4457,9.31182 66.6378,109.266 420.124,134.395 482.702,21.7866l-0.0484252 -0.0283465c4.19882,-7.55788 13.291,-10.6784 21.1252,-7.60985 11.9185,4.26615 181.426,71.2607 171.591,435.603 1.96654,20.3103 36.5209,340.589 270.857,383.257 62.7898,-4.7126 124.425,-25.1906 177.821,-56.8524 50.7815,-30.111 93.9402,-70.2119 123.352,-116.346 28.9843,-45.4642 44.6138,-96.8776 40.9016,-150.337 -2.49803,-35.9788 -13.8106,-73.0678 -35.7768,-110.111 -64.2591,-108.377 -196.134,-151.726 -246.499,-164.765 0.823229,54.1796 7.82127,97.969 18.8197,133.344 20.1827,64.9158 53.7721,100.8 86.7733,120.491 13.9559,8.32205 19.3169,25.9252 26.7945,40.0335 -80.2867,-12.685 -122.7,-75.1264 -146.1,-150.391 -13.3252,-42.8575 -21.2173,-96.7737 -20.3386,-164.577 -0.00354331,-0.322441 0,-0.646063 0.0141732,-0.970867 0.368504,-25.9701 2.02087,-53.9729 5.14489,-84.1654l-0.0330709 -0.00236221 0.0259843 -0.361418 0.00826772 -0.0791339zm-525.111 -256.692l13.5295 -84.052 38.1685 76.0997 84.1205 -13.1091 -60.5811 59.817 38.4614 75.9532 -75.6095 -39.1311 -60.3508 60.0497 13.852 -84.0012 -75.7595 -38.8406 84.169 -12.7854z"/>
  </g>
 </g>
 <rect class="fil2" width="2048" height="2048"/>
</svg>
